<svg xmlns="http://www.w3.org/2000/svg" fill="none" viewBox="0 0 33 38"><g clip-path="url(#a)"><path fill="#FDC305" d="M6.01 20.93v-2.28a139.13 139.13 0 0 1 19.98-1.34c0 .6 0 1.22-.06 1.83a24.9 24.9 0 0 1 5.94-1.83 16.77 16.77 0 0 0-6.77-8.29 16.25 16.25 0 0 0-10.3-2.4c-3.6.38-6.98 1.95-9.62 4.47a16.95 16.95 0 0 0-5 9.51l5.83.33Zm20.97 3.55c-1.15 1.3-1.38 1.21-1.38 3.49v9.27a16.7 16.7 0 0 0 5.43-6.05 17.08 17.08 0 0 0 1.97-7.95 17.9 17.9 0 0 0-.32-3.14 32.86 32.86 0 0 0-5.7 4.38Zm-20.68 1.5s-3.76-1.45-5.14-1.84a8.33 8.33 0 0 0-1.16-.28 17.07 17.07 0 0 0 2.46 8.23 16.63 16.63 0 0 0 6.14 5.91l-2.3-12.01Z"/><path fill="#F06351" d="M26.04 17.3a92.51 92.51 0 0 0-1.39-16.64s-.14-1.3-.88-.25a14.58 14.58 0 0 0-1.19 3.98 68.3 68.3 0 0 0-12.65.35c-.78-2.72-2.16-3.98-2.82-3.73-.66.25-.71 3.34-.71 3.34l-.33 14.25a139.1 139.1 0 0 1 19.97-1.3Z"/><path fill="#000" d="M12.29 14.14c0-.09 1 .7 1.4.93.4.25.6.43.6.6s-.27.34-.62.34c-.36 0-.9-.12-1-.27h1.22a8.34 8.34 0 0 1-1.6-1.6Zm7.4.12-1.07 1.34c0 .06-.17.35.18.3a7.1 7.1 0 0 0 1.2-.29c.11 0 .08-.2-.1-.17-.18.02-.69.05-1 .11l.84-1.27s.07-.13-.04-.02Zm-3.1 6.15c.46-.2.84-.56 1.08-1.01.28-.66 0-.92-.44-1.01a2.37 2.37 0 0 0-1.72.34c-.39.37-.34.73-.05 1.01.35.27.73.5 1.13.67Z"/><path fill="#F06351" d="M16.2 21.67c-.12.23-.27.44-.46.6a1.7 1.7 0 0 1-1 .4 2.1 2.1 0 0 1-1.45-.44 2.29 2.29 0 0 1-.52-.45 1.06 1.06 0 0 0-.36-.26s.74 4.14 2.55 4.8c1.8.66 2.12-.76 2.17-1.14a5.76 5.76 0 0 0-.8-3.26c-.03-.32-.04-.12-.14-.25Z"/><path fill="#000" d="M14.57 22.82a3.36 3.36 0 0 1-1.3-.47 3.44 3.44 0 0 1-1.04-1 .14.14 0 0 1 .08-.2.14.14 0 0 1 .15.04 3.22 3.22 0 0 0 2.09 1.31 2.04 2.04 0 0 0 1.61-1l.14-.2.1.21s.37.77 1 .8c.61.05 1.03-.4 1.59-1.28a.14.14 0 0 1 .2 0c.03.02.05.05.06.09a.15.15 0 0 1-.02.1c-.63 1.02-1.25 1.46-1.86 1.42a1.52 1.52 0 0 1-.64-.25 1.55 1.55 0 0 1-.47-.52 2.25 2.25 0 0 1-.74.67c-.3.17-.62.26-.95.28Z"/><path fill="#F06351" d="M25.99 19.12a58.7 58.7 0 0 0-5.02 5.24 31.58 31.58 0 0 1-5.24 4.94c-.22-.54-1.6-1.52-1.6-1.52s-3.1-2.17-5.14-3.86a34.1 34.1 0 0 1-3.1-3.03l-1.98-.12a22.37 22.37 0 0 0 11.89 8.9c.85-.15 3.23-1.88 5.02-3.3a58.15 58.15 0 0 0 5.88-5.95c.5-.6.88-1.28 1.13-2.02-1.09.4-1.84.72-1.84.72Z"/></g><defs><clipPath id="a"><path fill="#fff" d="M0 0h33v38h-33z"/></clipPath></defs></svg>